<svg version="1.2" baseProfile="tiny-ps" xmlns="http://www.w3.org/2000/svg" viewBox="0 0 32 32" width="32" height="32">
	<title>nav</title>
	<style>
		tspan { white-space:pre }
		.shp0 { fill: #ffffff } 
	</style>
	<g id="nav">
		<path id="change filter - on scroll " class="shp0" d="M25.58 16C25.58 16.7 25.05 17.26 24.38 17.33L15.32 17.33C14.95 17.3 14.66 17 14.64 16.63C14.64 16.62 14.64 16.61 14.64 16.61L14.64 16.55L14.64 9.65L14.64 9.56C14.66 8.84 15.25 8.26 15.99 8.26C16.74 8.26 17.34 8.86 17.34 9.61L17.34 10.37L17.34 13.87L17.34 13.88C17.34 13.89 17.34 13.91 17.34 13.92C17.34 13.93 17.34 13.94 17.34 13.95L17.34 13.96C17.36 14.33 17.65 14.62 18.01 14.65L24.32 14.66C25.02 14.71 25.58 15.29 25.58 16ZM15.99 0.01C24.83 0.01 31.99 7.17 31.99 16.01C31.99 24.85 24.83 32.01 15.99 32.01C7.16 32.01 -0.01 24.85 -0.01 16.01C-0.01 7.17 7.16 0.01 15.99 0.01ZM27.84 16.01C27.84 9.46 22.54 4.16 15.99 4.16C9.45 4.16 4.14 9.46 4.14 16.01C4.14 22.56 9.45 27.86 15.99 27.86C22.54 27.86 27.84 22.56 27.84 16.01Z" />
	</g>
</svg>