<svg version="1.2" baseProfile="tiny-ps" xmlns="http://www.w3.org/2000/svg" viewBox="0 0 30 30" width="30" height="30">
	<title>nav</title>
	<style>
		tspan { white-space:pre }
		.shp0 { fill: #ffffff } 
	</style>
	<g id="nav">
		<path id="settings" class="shp0" d="M29.95 13.61L29.93 13.61C29.87 13.02 29.4 12.55 28.82 12.49L28.56 12.49L28.13 12.49L28.13 12.49C27.39 12.49 26.76 12.06 26.45 11.44C26.38 11.29 26.32 11.13 26.29 10.96C26.15 10.57 26 10.2 25.82 9.83C25.82 9.83 25.82 9.83 25.82 9.83C25.73 9.7 25.66 9.56 25.61 9.41C25.61 9.41 25.61 9.41 25.61 9.41C25.54 9.21 25.5 9 25.5 8.78C25.5 8.27 25.71 7.8 26.05 7.46L26.05 7.46L26.05 7.46L26.43 7.08C26.43 7.08 26.44 7.07 26.44 7.07C26.45 7.06 26.45 7.06 26.46 7.05C26.9 6.59 26.92 5.88 26.53 5.4L26.53 5.39C26.24 5.04 25.94 4.71 25.61 4.39C25.28 4.06 24.94 3.74 24.58 3.45L24.58 3.45C24.14 3.09 23.51 3.08 23.06 3.41L22.78 3.68L22.52 3.94L22.51 3.93C21.97 4.48 21.17 4.61 20.49 4.34C20.4 4.31 20.31 4.26 20.22 4.21C19.79 4 19.35 3.82 18.89 3.66C18.81 3.64 18.73 3.61 18.65 3.58C18.65 3.58 18.65 3.58 18.65 3.58C18.42 3.49 18.21 3.35 18.03 3.17C17.73 2.87 17.55 2.48 17.5 2.08C17.48 1.93 17.48 1.77 17.5 1.61L17.5 1.29C17.5 0.68 17.05 0.17 16.47 0.06C16.39 0.06 16.32 0.05 16.25 0.04L16.25 0.04C15.83 0.01 15.42 -0.01 15 -0.01C14.58 -0.01 14.16 0.01 13.75 0.04L13.75 0.04C13.67 0.05 13.6 0.06 13.53 0.06C12.94 0.17 12.5 0.68 12.5 1.29L12.5 1.85C12.5 2.65 11.99 3.34 11.28 3.6C11.24 3.62 11.19 3.64 11.14 3.65C10.64 3.82 10.16 4.02 9.69 4.25C9.69 4.25 9.69 4.25 9.69 4.25C9.65 4.27 9.61 4.29 9.57 4.31C9.33 4.42 9.07 4.48 8.79 4.48C8.28 4.48 7.81 4.27 7.47 3.93L7.46 3.93L7.07 3.54C6.63 3.11 5.96 3.06 5.48 3.4C5.42 3.44 5.36 3.49 5.31 3.53C5.31 3.53 5.3 3.54 5.3 3.54C4.98 3.81 4.68 4.09 4.38 4.39C4.09 4.68 3.8 4.98 3.54 5.3C3.54 5.3 3.54 5.3 3.54 5.3C3.49 5.36 3.44 5.42 3.39 5.48C3.05 5.96 3.1 6.64 3.54 7.07L3.93 7.46C4.5 8.03 4.62 8.87 4.31 9.56C4.29 9.6 4.27 9.65 4.25 9.69C4.02 10.15 3.82 10.64 3.65 11.13C3.63 11.19 3.61 11.24 3.59 11.29C3.59 11.29 3.59 11.29 3.59 11.29C3.5 11.53 3.36 11.75 3.17 11.94C2.8 12.31 2.33 12.49 1.85 12.49L1.85 12.49L1.29 12.49C0.67 12.49 0.16 12.94 0.06 13.52C0.05 13.59 0.04 13.67 0.04 13.74L0.04 13.74C0 14.14 -0.02 14.58 -0.02 14.99L-0.02 14.99C-0.02 14.99 -0.02 15 -0.02 15C-0.02 15 -0.02 15.01 -0.02 15.01L-0.02 15.01C-0.02 15.42 0 15.83 0.04 16.24L0.04 16.24C0.04 16.31 0.05 16.38 0.06 16.46C0.16 17.04 0.67 17.49 1.28 17.49C1.28 17.49 1.28 17.49 1.29 17.49L1.85 17.49L1.85 17.49C2.64 17.49 3.32 17.99 3.59 18.69C3.59 18.69 3.59 18.69 3.59 18.69C3.61 18.74 3.63 18.78 3.64 18.83C3.64 18.83 3.64 18.84 3.64 18.84C3.81 19.34 4.02 19.82 4.24 20.29C4.25 20.29 4.25 20.3 4.25 20.3C4.27 20.33 4.29 20.37 4.31 20.41C4.42 20.65 4.48 20.91 4.48 21.19C4.48 21.71 4.27 22.18 3.93 22.51L3.93 22.52L3.55 22.9C3.54 22.9 3.54 22.91 3.53 22.91C3.53 22.92 3.52 22.92 3.52 22.93C3.1 23.36 3.06 24.01 3.38 24.49C3.43 24.56 3.49 24.62 3.54 24.69C3.81 25 4.09 25.3 4.38 25.6L4.38 25.6C4.67 25.89 4.98 26.17 5.29 26.44C5.36 26.49 5.42 26.54 5.49 26.6C5.92 26.89 6.49 26.88 6.92 26.57L7.19 26.29L7.45 26.04L7.46 26.05C8.03 25.48 8.87 25.35 9.57 25.67C9.6 25.68 9.64 25.7 9.67 25.72C9.67 25.72 9.68 25.72 9.68 25.73C10.15 25.96 10.64 26.16 11.14 26.33C11.19 26.35 11.23 26.36 11.27 26.38C11.52 26.47 11.75 26.61 11.94 26.81C12.31 27.17 12.49 27.65 12.49 28.13L12.5 28.13L12.5 28.68C12.5 29.32 12.99 29.85 13.62 29.92L13.62 29.93C14.07 29.97 14.53 29.99 15 29.99C15.46 29.99 15.92 29.97 16.38 29.93L16.37 29.92C17 29.85 17.5 29.32 17.5 28.68L17.5 28.12C17.5 27.37 17.94 26.72 18.58 26.42C18.71 26.36 18.84 26.32 18.99 26.29C19.4 26.14 19.8 25.98 20.19 25.79C20.3 25.72 20.42 25.65 20.55 25.61C20.75 25.53 20.97 25.49 21.2 25.49C21.68 25.49 22.11 25.67 22.45 25.96C22.5 26.01 22.56 26.06 22.61 26.12L22.93 26.44L22.93 26.44C23.37 26.88 24.06 26.92 24.54 26.57C24.55 26.57 24.55 26.57 24.55 26.56C24.59 26.53 24.63 26.5 24.67 26.46C25 26.19 25.31 25.9 25.61 25.6C25.92 25.29 26.21 24.98 26.48 24.65C26.52 24.61 26.55 24.57 26.59 24.52C26.93 24.05 26.9 23.4 26.5 22.96L26.5 22.95L26.41 22.87L26.41 22.87L26.07 22.52L26.07 22.52C25.51 21.96 25.37 21.13 25.67 20.45C25.7 20.39 25.73 20.32 25.76 20.26C25.99 19.81 26.18 19.35 26.34 18.87C26.36 18.8 26.38 18.74 26.41 18.68C26.5 18.44 26.64 18.23 26.83 18.04C27.19 17.67 27.67 17.49 28.15 17.49L28.15 17.49L28.69 17.49L28.69 17.48C29.36 17.48 29.9 16.95 29.94 16.3L29.96 16.3C29.99 15.87 30.01 15.43 30.01 14.99C30.01 14.52 29.99 14.06 29.95 13.61ZM22.67 14.99L22.67 14.99C22.67 15.86 22.53 16.71 22.26 17.49C22.16 17.79 22.04 18.08 21.9 18.36C21.53 19.12 21.03 19.82 20.43 20.42C19.83 21.02 19.14 21.52 18.37 21.89C18.09 22.03 17.8 22.16 17.5 22.26C16.71 22.53 15.87 22.68 15 22.68C14.99 22.68 14.98 22.68 14.98 22.68C14.11 22.68 13.28 22.54 12.5 22.27C12.19 22.17 11.88 22.04 11.59 21.9C10.83 21.53 10.14 21.03 9.54 20.44C8.94 19.84 8.44 19.15 8.07 18.38C7.92 18.1 7.8 17.8 7.69 17.49C7.42 16.71 7.28 15.88 7.28 15.01C7.28 14.14 7.42 13.27 7.69 12.49C7.8 12.19 7.92 11.89 8.07 11.6C8.44 10.83 8.94 10.14 9.54 9.54C10.14 8.95 10.84 8.45 11.61 8.07C11.89 7.93 12.19 7.81 12.5 7.71C13.28 7.44 14.11 7.3 14.98 7.3C14.98 7.3 14.99 7.3 15 7.3C15.87 7.3 16.71 7.45 17.5 7.72C17.8 7.83 18.09 7.95 18.37 8.09C19.14 8.47 19.83 8.97 20.43 9.56C21.02 10.16 21.52 10.85 21.89 11.61C22.03 11.9 22.15 12.19 22.26 12.49C22.53 13.27 22.67 14.11 22.67 14.98L22.67 14.99Z" />
	</g>
</svg>